<?xml version="1.0" standalone="no"?>
<!DOCTYPE svg PUBLIC "-//W3C//DTD SVG 20010904//EN"
 "http://www.w3.org/TR/2001/REC-SVG-20010904/DTD/svg10.dtd">
<svg version="1.0" xmlns="http://www.w3.org/2000/svg"
 width="500.000000pt" height="500.000000pt" viewBox="0 0 500.000000 500.000000"
 preserveAspectRatio="xMidYMid meet">

<g transform="translate(0.000000,500.000000) scale(0.100000,-0.100000)"
fill="#000000" stroke="none">
<path d="M693 3213 l-433 -3 0 -155 0 -155 415 0 415 0 0 -535 c0 -528 0 -535
20 -535 16 0 20 7 20 35 0 19 -4 35 -10 35 -16 0 -12 37 5 44 13 5 15 85 15
641 0 349 -3 634 -7 633 -5 -2 -203 -4 -440 -5z"/>
<path d="M1267 3214 c-4 -4 -7 -292 -7 -641 0 -556 2 -633 15 -633 17 0 21
-35 5 -45 -5 -3 -10 -19 -10 -36 0 -29 0 -29 60 -29 l60 0 0 275 0 275 320 0
320 0 0 -275 0 -275 150 0 150 0 0 689 c0 630 -1 690 -16 693 -9 2 -77 2 -150
0 l-134 -3 0 -285 0 -284 -320 0 -320 0 0 285 0 285 -29 0 c-16 0 -41 3 -57 6
-16 3 -32 2 -37 -2z"/>
<path d="M3190 2526 l0 -696 150 0 150 0 2 198 3 197 165 0 164 0 43 -75 c24
-41 73 -130 110 -197 l66 -123 169 0 c93 0 168 4 166 8 -1 5 -66 107 -143 227
l-139 218 22 16 c85 60 127 99 153 139 89 141 108 337 47 497 -27 72 -114 169
-186 208 -28 15 -85 37 -128 48 -72 19 -114 22 -446 26 l-368 5 0 -696z m685
434 c80 -13 132 -50 168 -120 25 -49 28 -63 24 -125 -5 -82 -32 -143 -79 -178
-65 -48 -91 -52 -298 -52 l-195 0 -3 230 c-1 126 0 235 2 242 7 16 289 18 381
3z"/>
<path d="M2611 2665 c-47 -15 -94 -54 -117 -97 -8 -15 -14 -54 -14 -86 0 -47
6 -72 30 -117 17 -31 30 -61 30 -66 0 -5 -13 -15 -29 -23 -35 -19 -88 -70
-113 -111 -22 -36 -24 -130 -4 -178 60 -145 287 -192 437 -91 28 19 56 34 62
34 6 0 36 -25 67 -55 l56 -55 39 40 39 40 -57 58 c-31 32 -57 63 -57 70 0 7
14 36 30 65 17 30 30 61 30 70 0 13 -78 87 -92 87 -3 0 -11 -15 -18 -32 -7
-18 -22 -48 -33 -66 l-20 -34 -73 73 c-41 41 -73 77 -72 81 2 4 34 29 72 55
86 60 107 88 114 151 9 102 -38 163 -146 188 -70 17 -104 17 -161 -1z m153
-106 c31 -24 36 -81 11 -117 -17 -23 -97 -82 -113 -82 -16 0 -52 87 -52 129 0
81 89 121 154 70z m-51 -444 l88 -94 -39 -26 c-108 -72 -242 -21 -242 91 0 36
6 51 36 84 20 22 44 40 53 40 9 0 56 -43 104 -95z"/>
<path d="M1341 1364 c-107 -90 25 -236 143 -159 54 35 51 130 -5 169 -37 25
-102 21 -138 -10z m117 -21 c61 -52 -2 -158 -71 -121 -52 27 -61 75 -22 113
28 29 65 32 93 8z"/>
<path d="M1572 1288 c3 -89 5 -103 21 -106 15 -3 17 7 17 102 0 100 -1 106
-20 106 -20 0 -21 -5 -18 -102z"/>
<path d="M1670 1285 l0 -106 68 3 c64 3 90 20 40 26 -71 8 -68 5 -68 97 0 78
-2 85 -20 85 -19 0 -20 -7 -20 -105z"/>
<path d="M1950 1370 c-37 -37 -19 -72 50 -95 51 -17 61 -33 35 -55 -13 -10
-23 -10 -57 4 -32 12 -44 13 -49 4 -11 -18 -2 -26 42 -38 113 -31 168 69 59
105 -37 12 -50 22 -50 36 0 26 23 33 62 20 24 -9 33 -8 40 1 23 38 -96 54
-132 18z"/>
<path d="M2138 1380 c-1 -5 -2 -52 0 -105 l3 -95 80 0 c64 0 79 3 79 15 0 12
-13 15 -60 15 l-60 0 0 30 c0 29 1 30 50 30 38 0 50 4 50 15 0 11 -12 15 -50
15 -49 0 -50 1 -50 30 0 30 1 30 55 30 42 0 55 3 55 15 0 12 -15 15 -74 15
-41 0 -76 -4 -78 -10z"/>
<path d="M2350 1285 c0 -98 1 -105 20 -105 16 0 20 7 20 30 0 27 3 30 33 30
25 0 36 -6 49 -30 9 -17 24 -30 33 -30 19 0 19 5 -2 41 -16 27 -16 29 2 49 26
29 24 79 -4 102 -17 13 -40 18 -87 18 l-64 0 0 -105z m134 53 c18 -29 -4 -53
-53 -56 l-41 -3 0 41 0 41 41 -3 c27 -2 46 -9 53 -20z"/>
<path d="M2584 1333 c12 -32 31 -79 40 -105 14 -37 23 -48 39 -48 22 0 27 10
105 202 2 4 -5 8 -16 8 -16 0 -26 -16 -47 -75 -16 -42 -32 -74 -38 -72 -6 2
-22 34 -36 73 -21 53 -32 70 -48 72 l-22 3 23 -58z"/>
<path d="M2810 1285 c0 -98 1 -105 20 -105 19 0 20 7 20 105 0 98 -1 105 -20
105 -19 0 -20 -7 -20 -105z"/>
<path d="M2953 1380 c-12 -5 -30 -21 -39 -36 -57 -86 43 -197 135 -149 31 15
38 44 10 36 -67 -20 -103 -9 -120 37 -21 54 48 110 101 82 17 -9 25 -9 34 0
28 29 -65 52 -121 30z"/>
<path d="M3130 1285 l0 -105 80 0 c64 0 80 3 80 15 0 12 -13 15 -60 15 -60 0
-60 0 -60 29 0 29 2 30 52 33 71 4 76 26 6 30 -50 3 -53 5 -56 31 -3 27 -3 27
57 27 48 0 61 3 61 15 0 12 -16 15 -80 15 l-80 0 0 -105z"/>
<path d="M3360 1370 c-35 -35 -19 -74 40 -91 53 -16 69 -35 47 -56 -14 -14
-20 -14 -61 -1 -44 15 -64 10 -51 -12 9 -15 82 -31 109 -24 37 9 60 39 52 68
-4 18 -18 28 -55 41 -53 17 -68 36 -45 56 11 9 23 9 50 1 29 -9 36 -8 41 5 14
36 -92 48 -127 13z"/>
<path d="M3668 1374 c-34 -18 -48 -43 -48 -86 0 -41 21 -73 62 -94 34 -18 89
-12 108 11 17 20 3 38 -20 25 -78 -42 -152 56 -83 110 27 21 37 21 91 5 16 -6
22 -3 22 8 0 36 -82 49 -132 21z"/>
<path d="M3996 1382 c-6 -10 -86 -194 -86 -199 0 -2 9 -3 19 -3 11 0 23 9 26
20 5 17 15 20 63 20 46 0 60 -4 70 -20 7 -11 19 -20 28 -20 19 0 15 14 -37
127 -29 63 -43 83 -58 83 -11 0 -22 -4 -25 -8z m49 -78 c8 -20 15 -38 15 -40
0 -2 -18 -4 -40 -4 -22 0 -40 2 -40 5 0 12 35 75 42 75 4 0 15 -16 23 -36z"/>
<path d="M3852 1206 c1 -10 8 -17 13 -17 15 1 12 24 -3 29 -9 3 -13 -2 -10
-12z"/>
<path d="M4165 1210 c-8 -13 4 -32 16 -25 12 8 12 35 0 35 -6 0 -13 -4 -16
-10z"/>
<path d="M1500 1021 c0 -17 8 -20 48 -23 l47 -3 3 -57 c4 -72 -9 -98 -48 -98
-16 0 -32 5 -35 10 -4 6 -11 8 -16 5 -18 -12 -8 -35 22 -50 25 -13 37 -14 65
-5 19 6 39 20 44 30 6 10 10 62 10 114 l0 96 -70 0 c-63 0 -70 -2 -70 -19z"/>
<path d="M1855 964 c-47 -104 -46 -114 9 -114 60 0 76 -8 76 -36 0 -17 6 -24
20 -24 16 0 20 7 20 30 0 19 5 30 14 30 23 0 29 31 6 37 -13 3 -20 14 -20 29
0 13 -2 24 -4 24 -2 0 -11 3 -19 6 -11 4 -16 -2 -19 -23 -2 -23 -8 -28 -35
-31 -18 -2 -33 -1 -33 3 0 3 14 35 30 72 17 36 30 67 30 69 0 2 -9 4 -20 4
-16 0 -29 -18 -55 -76z"/>
<path d="M2113 1030 c-32 -13 -54 -53 -56 -102 -2 -62 18 -103 61 -124 51 -24
109 -4 135 46 25 49 18 123 -15 157 -28 27 -89 39 -125 23z m91 -46 c21 -20
21 -102 0 -132 -18 -26 -65 -30 -85 -6 -17 21 -18 116 0 137 17 21 65 22 85 1z"/>
<path d="M2353 1025 c-25 -18 -29 -45 -12 -74 10 -14 7 -24 -12 -50 -22 -30
-23 -34 -8 -59 20 -37 62 -55 105 -47 67 12 96 73 54 115 -19 19 -19 21 -2 49
16 29 16 31 -4 51 -28 29 -92 36 -121 15z m85 -24 c8 -5 12 -17 10 -27 -5 -27
-73 -33 -82 -7 -12 31 40 55 72 34z m10 -103 c33 -33 -13 -87 -60 -69 -53 20
-42 81 15 81 18 0 38 -5 45 -12z"/>
<path d="M2595 1033 c-35 -9 -54 -28 -45 -43 7 -11 14 -11 39 0 40 16 81 6 81
-20 0 -11 -27 -48 -60 -83 -84 -90 -82 -97 30 -97 83 0 90 1 90 20 0 18 -7 20
-55 20 -30 0 -55 3 -55 6 0 3 20 29 44 56 54 62 64 94 39 120 -20 20 -74 30
-108 21z"/>
<path d="M2808 1025 c-31 -18 -35 -40 -13 -72 14 -21 14 -24 -5 -43 -28 -28
-26 -75 4 -95 57 -37 126 -25 155 27 14 25 14 29 -7 58 -18 23 -20 34 -12 49
14 28 12 56 -5 71 -23 19 -87 22 -117 5z m86 -28 c11 -8 15 -19 10 -30 -9 -26
-77 -20 -82 7 -7 33 39 47 72 23z m16 -107 c17 -32 -4 -60 -43 -60 -36 0 -57
15 -57 40 0 42 80 58 100 20z"/>
<path d="M3005 1030 c-12 -19 6 -30 51 -30 24 0 44 -4 44 -8 0 -5 -13 -21 -30
-37 -33 -32 -31 -45 8 -45 40 0 54 -13 50 -46 -3 -27 -6 -29 -48 -29 -25 1
-51 3 -59 5 -8 3 -16 -2 -18 -11 -6 -27 84 -45 130 -26 62 27 63 97 0 123
l-36 15 37 38 c20 20 36 42 36 49 0 15 -156 17 -165 2z"/>
<path d="M3220 1005 c0 -28 4 -35 20 -35 11 0 20 7 20 15 0 11 12 15 45 15 25
0 45 -3 45 -6 0 -4 -20 -49 -45 -102 -25 -52 -45 -97 -45 -99 0 -2 10 -3 23
-1 17 2 32 25 69 100 25 53 48 107 50 120 3 22 1 23 -89 26 l-93 3 0 -36z"/>
<path d="M3483 1028 c-31 -15 -38 -44 -18 -74 16 -25 16 -27 -4 -48 -39 -41
-22 -89 38 -107 92 -27 171 51 111 111 -19 19 -19 22 -4 44 36 57 -51 109
-123 74z m85 -27 c8 -5 12 -17 10 -27 -4 -25 -75 -33 -84 -9 -13 33 39 59 74
36z m10 -103 c34 -34 -13 -87 -61 -69 -30 12 -44 46 -27 66 15 18 71 20 88 3z"/>
<path d="M3864 1021 c-76 -47 -67 -191 14 -222 34 -13 97 4 112 31 39 73 -37
149 -111 110 -16 -9 -19 -7 -19 14 0 33 32 50 81 43 28 -4 39 -1 44 10 7 21 6
22 -46 29 -33 4 -51 0 -75 -15z m86 -115 c15 -19 9 -56 -11 -69 -9 -5 -28 -7
-42 -3 -52 13 -42 86 12 86 16 0 34 -7 41 -14z"/>
<path d="M1700 895 c0 -11 11 -15 40 -15 29 0 40 4 40 15 0 11 -11 15 -40 15
-29 0 -40 -4 -40 -15z"/>
<path d="M3682 898 c5 -15 77 -18 81 -3 1 6 -18 11 -42 13 -32 2 -42 0 -39
-10z"/>
</g>
</svg>
